<?xml version="1.0" standalone="no"?>
<!DOCTYPE svg PUBLIC "-//W3C//DTD SVG 1.1//EN" "http://www.w3.org/Graphics/SVG/1.1/DTD/svg11.dtd" >
<svg xmlns="http://www.w3.org/2000/svg" xmlns:xlink="http://www.w3.org/1999/xlink" version="1.1">
<metadata>
Created by FontForge 20150824 at Sun Jul 24 22:08:07 2016
 By Everything Fonts
Copyrighted (c) 1981, 1997 by and the property of Linotype-Hell AG and/or its subsidiaries. All Rights Reserved. All Cyrillic characters designed by DoubleAlex. Helvetica is a registered Trademark of Linotype-Hell AG and/or its subsidiaries.
</metadata>
<defs>
<font id="HelveticaNeueCyrBold" horiz-adv-x="556" >
  <font-face 
    font-family="HelveticaNeueCyrBold"
    font-weight="700"
    font-stretch="normal"
    units-per-em="1000"
    panose-1="2 0 8 3 5 0 0 2 0 4"
    ascent="800"
    descent="-200"
    x-height="516"
    cap-height="712"
    bbox="-48 -214 1088 904"
    underline-thickness="50"
    underline-position="-150"
    unicode-range="U+0020-E001"
  />
<missing-glyph horiz-adv-x="1000" 
 />
    <glyph glyph-name=".notdef" horiz-adv-x="1000" 
 />
    <glyph glyph-name=".null" horiz-adv-x="0" 
 />
    <glyph glyph-name="nonmarkingreturn" horiz-adv-x="333" 
 />
    <glyph glyph-name="space" unicode=" " horiz-adv-x="278" 
 />
    <glyph glyph-name="exclam" unicode="!" horiz-adv-x="278" 
d="M213 712v-190l-39 -305h-71l-39 303v192h149zM216 153v-153h-155v153h155z" />
    <glyph glyph-name="quotedbl" unicode="&#x22;" horiz-adv-x="463" 
d="M178 401h-69l-19 293h106zM354 401h-68l-19 293h106z" />
    <glyph glyph-name="numbersign" unicode="#" 
d="M157 0h-102l37 192h-89v84h105l26 141h-88v85h104l37 192h102l-37 -192h109l37 192h102l-37 -192h89v-85h-105l-26 -141h88v-84h-104l-37 -192h-102l37 192h-110zM319 276l26 141h-109l-26 -141h109z" />
    <glyph glyph-name="dollar" unicode="$" 
d="M304 789v-76q107 -2 168.5 -54t61.5 -140v-14h-133v7q0 89 -97 100v-193l6 -1q51 -8 91 -21.5t77 -37.5t57.5 -63.5t20.5 -91.5q0 -98 -69.5 -158.5t-182.5 -62.5v-84h-54v84q-113 2 -184.5 62.5t-71.5 171.5l1 6h142v-9q0 -114 113 -123v213q-49 8 -86.5 21t-73.5 35
t-55 59t-19 87q0 99 65.5 149.5t168.5 57.5v76h54zM250 431v180q-48 -2 -75 -26t-27 -63q0 -18 6.5 -32.5t14 -23t24.5 -16t26 -10.5t31 -9zM304 292v-202q50 1 80.5 29.5t30.5 73.5q0 77 -111 99z" />
    <glyph glyph-name="percent" unicode="%" horiz-adv-x="1000" 
d="M737 720l-393 -747h-89l394 747h88zM246 706q81 0 124 -48.5t43 -140.5q0 -97 -43 -148.5t-123 -51.5q-82 0 -125.5 50.5t-43.5 144.5q0 93 44 143.5t124 50.5zM245 633q-65 0 -65 -126q0 -63 15 -90.5t49 -27.5q35 0 50.5 30t15.5 98q0 23 -1.5 38.5t-7 36t-20 31
t-36.5 10.5zM760 375q81 0 124 -48.5t43 -140.5q0 -97 -43 -148.5t-123 -51.5q-82 0 -125.5 50.5t-43.5 144.5q0 93 44 143.5t124 50.5zM759 302q-65 0 -65 -126q0 -63 15 -90.5t49 -27.5q35 0 50.5 30t15.5 98q0 23 -1.5 38.5t-7 36t-20 31t-36.5 10.5z" />
    <glyph glyph-name="ampersand" unicode="&#x26;" horiz-adv-x="685" 
d="M621 344q-12 -106 -68 -175l145 -169h-173l-59 70q-79 -85 -199 -85q-98 0 -165.5 56.5t-67.5 153.5q0 71 45 125.5t116 85.5q-67 81 -67 148q0 73 54.5 120t137.5 47q80 0 132.5 -48t52.5 -121q0 -114 -124 -180l92 -112q17 30 26 84h122zM311 456q40 24 57 47t17 52
t-18.5 47.5t-46.5 18.5t-47 -18t-19 -44q0 -39 57 -103zM268 314q-96 -49 -96 -115q0 -40 29.5 -68t71.5 -28q63 0 118 62z" />
    <glyph glyph-name="quotesingle" unicode="'" horiz-adv-x="278" 
d="M172 401h-66l-21 293h108z" />
    <glyph glyph-name="parenleft" unicode="(" horiz-adv-x="296" 
d="M302 723q-58 -116 -84.5 -222t-26.5 -233q0 -220 113 -446h-120q-62 94 -96.5 211t-34.5 232q0 120 33.5 242.5t97.5 215.5h118z" />
    <glyph glyph-name="parenright" unicode=")" horiz-adv-x="296" 
d="M-4 723h118q133 -204 133 -445q0 -113 -35 -244t-96 -212h-119q60 122 85.5 225.5t25.5 232.5q0 242 -112 443z" />
    <glyph glyph-name="asterisk" unicode="*" horiz-adv-x="407" 
d="M386 564l-118 -39l73 -98l-66 -49l-73 103l-71 -103l-67 49l74 98l-116 39l26 77l116 -44l-3 125h84l-4 -125l116 44z" />
    <glyph glyph-name="plus" unicode="+" horiz-adv-x="600" 
d="M246 0v209h-206v101h206v209h108v-209h206v-101h-206v-209h-108z" />
    <glyph glyph-name="comma" unicode="," horiz-adv-x="278" 
d="M218 156v-127q0 -87 -38.5 -134.5t-119.5 -60.5v70q67 20 71 96h-71v156h158z" />
    <glyph glyph-name="hyphen" unicode="-" horiz-adv-x="407" 
d="M354 336v-127h-301v127h301z" />
    <glyph glyph-name="period" unicode="." horiz-adv-x="278" 
d="M218 156v-156h-158v156h158z" />
    <glyph glyph-name="slash" unicode="/" horiz-adv-x="371" 
d="M260 729h122l-272 -746h-123z" />
    <glyph glyph-name="zero" unicode="0" 
d="M279 704q58 0 103.5 -22t73.5 -57t46.5 -83t25.5 -96t7 -101q0 -167 -68 -262t-187 -95q-122 0 -190.5 94.5t-68.5 262.5q0 67 13 126.5t41 114t80.5 86.5t123.5 32zM278 587q-28 0 -49 -12t-33.5 -35.5t-20 -45t-10.5 -56t-3.5 -52.5t-0.5 -48q0 -235 118 -235
q116 0 116 242q0 125 -28 183.5t-89 58.5z" />
    <glyph glyph-name="one" unicode="1" 
d="M396 700v-700h-151v455h-170v105h18q159 0 186 140h117z" />
    <glyph glyph-name="two" unicode="2" 
d="M528 123v-123h-513q1 47 12.5 86.5t27 66.5t47.5 57t56.5 48t71.5 50q6 4 32 21t36 24t30 24.5t28.5 30.5t16.5 32.5t8 40.5q0 46 -27.5 73.5t-72.5 27.5q-108 0 -114 -152h-136v15q0 119 69 189.5t186 70.5q106 0 172 -59.5t66 -154.5q0 -77 -35 -123t-110 -97
q-10 -7 -37 -24.5t-42.5 -28.5t-37.5 -28t-38 -33.5t-27 -33.5h331z" />
    <glyph glyph-name="three" unicode="3" 
d="M32 471q4 109 68 171.5t174 62.5q104 0 168.5 -53.5t64.5 -138.5q0 -51 -26.5 -88.5t-71.5 -49.5q58 -14 91 -56.5t33 -104.5q0 -100 -72.5 -163.5t-187.5 -63.5q-119 0 -189 66t-70 178v10h137q1 -65 31.5 -99.5t87.5 -34.5q52 0 84 29.5t32 76.5q0 55 -35.5 79.5
t-91.5 24.5q-21 0 -35 -1v100q11 -1 24 -1q122 0 122 88q0 40 -26.5 64t-70.5 24q-50 0 -77.5 -31t-28.5 -89h-135z" />
    <glyph glyph-name="four" unicode="4" 
d="M539 279v-118h-94v-161h-132v161h-300v131l304 410h128v-423h94zM313 279v260l-186 -260h186z" />
    <glyph glyph-name="five" unicode="5" 
d="M492 694v-121h-287l-27 -152q49 49 129 49q101 0 162 -63t61 -166q0 -110 -74 -181t-190 -71q-110 0 -179.5 56.5t-75.5 161.5h140q5 -46 36.5 -74.5t78.5 -28.5q53 0 87 37.5t34 96.5t-33 94t-89 35q-67 0 -105 -58h-127l68 385h391z" />
    <glyph glyph-name="six" unicode="6" 
d="M524 518h-135q-20 79 -94 79q-117 0 -133 -208q58 79 156 79q96 0 157.5 -65t61.5 -166q1 -109 -69.5 -179t-179.5 -70q-124 0 -194 91.5t-70 255.5q0 173 73 271.5t200 98.5q95 0 154.5 -49t72.5 -138zM285 362q-48 0 -79 -37t-31 -93q0 -57 31 -93t80 -36t81 37t32 93
t-32 92.5t-82 36.5z" />
    <glyph glyph-name="seven" unicode="7" 
d="M515 694v-117q-116 -127 -168.5 -261.5t-62.5 -315.5h-147q0 126 71.5 299.5t162.5 266.5h-334v128h478z" />
    <glyph glyph-name="eight" unicode="8" 
d="M146 372q-50 17 -76.5 54.5t-26.5 90.5q0 82 67 135.5t168 53.5q102 0 168.5 -53.5t66.5 -135.5q0 -111 -102 -145q61 -15 96 -60.5t35 -110.5q0 -96 -72.5 -154.5t-191.5 -58.5t-191 58.5t-72 154.5q0 65 35 110.5t96 60.5zM278 599q-47 0 -76 -25t-29 -66
q0 -43 29 -68.5t77 -25.5q49 0 77.5 25.5t28.5 68.5t-28.5 67t-78.5 24zM275 321q-52 0 -85 -31t-33 -80q0 -51 33.5 -82.5t87.5 -31.5q55 0 88.5 31t33.5 82q0 50 -34.5 81t-90.5 31z" />
    <glyph glyph-name="nine" unicode="9" 
d="M29 176h135q17 -80 96 -80q37 0 62.5 20t38.5 56t19 65.5t9 68.5q-57 -81 -150 -81q-97 0 -159.5 65t-62.5 166q0 107 72 178.5t180 71.5q70 0 122.5 -29.5t81.5 -79.5t43 -108t14 -124q0 -68 -14 -131t-43.5 -120t-84.5 -91.5t-128 -34.5q-96 0 -158 51t-73 137z
M266 589q-47 0 -78.5 -36.5t-31.5 -91.5q0 -56 31 -92t80 -36q48 0 79.5 36t31.5 91t-32 92t-80 37z" />
    <glyph glyph-name="colon" unicode=":" horiz-adv-x="278" 
d="M218 509v-156h-158v156h158zM218 156v-156h-158v156h158z" />
    <glyph glyph-name="semicolon" unicode=";" horiz-adv-x="278" 
d="M219 156v-127q0 -87 -38.5 -134.5t-119.5 -60.5v70q67 20 71 96h-71v156h158zM217 509v-156h-158v156h158z" />
    <glyph glyph-name="less" unicode="&#x3c;" horiz-adv-x="600" 
d="M40 207v105l520 200v-122l-362 -130l362 -130v-124z" />
    <glyph glyph-name="equal" unicode="=" horiz-adv-x="600" 
d="M40 308v112h520v-112h-520zM40 99v112h520v-112h-520z" />
    <glyph glyph-name="greater" unicode="&#x3e;" horiz-adv-x="600" 
d="M560 207l-520 -201v124l362 130l-362 130v122l520 -200v-105z" />
    <glyph glyph-name="question" unicode="?" 
d="M31 482q7 115 71 180t181 65q107 0 172 -56.5t65 -148.5q0 -58 -29.5 -100t-83.5 -79q-44 -30 -57 -53.5t-13 -75.5h-133q0 70 11.5 107.5t57.5 76.5q6 5 25 20t27 23t20 22t17 29t5 33q0 36 -23.5 58t-62.5 22q-100 0 -104 -123h-146zM347 153v-153h-155v153h155z" />
    <glyph glyph-name="at" unicode="@" horiz-adv-x="800" 
d="M694 130l29 -40q-78 -57 -150 -82t-156 -25q-167 0 -274 99q-113 104 -113 264q0 162 116 272.5t286 110.5q149 0 243.5 -84t94.5 -216q0 -104 -62 -183.5t-144 -79.5q-39 0 -62 19.5t-23 53.5q0 12 2 20q-48 -93 -138 -93q-61 0 -98.5 42.5t-37.5 110.5q0 97 60.5 169.5
t140.5 72.5q82 0 113 -68l14 52h85l-65 -223q-10 -36 -10 -54q0 -40 41 -40q49 0 88.5 64t39.5 142q0 108 -78 175.5t-203 67.5q-149 0 -248 -95t-99 -239q0 -136 93.5 -222.5t240.5 -86.5q142 0 274 96zM490 434q0 29 -16.5 47.5t-44.5 18.5q-52 0 -87 -65t-35 -121
q0 -41 16.5 -63.5t46.5 -22.5q35 0 64.5 40t42.5 86.5t13 79.5z" />
    <glyph glyph-name="A" unicode="A" horiz-adv-x="685" 
d="M423 713l271 -713h-164l-56 159h-265l-58 -159h-160l271 713h161zM436 273l-94 265l-95 -265h189z" />
    <glyph glyph-name="B" unicode="B" horiz-adv-x="704" 
d="M68 712h337q100 0 163.5 -44.5t63.5 -134.5q0 -50 -26 -88.5t-71 -58.5q130 -37 130 -174q0 -101 -68 -156.5t-173 -55.5h-356v712zM220 591v-167h142q118 0 118 83q0 49 -32 66.5t-86 17.5h-142zM220 318v-194h157q61 0 96.5 20t35.5 77q0 58 -37.5 77.5t-102.5 19.5
h-149z" />
    <glyph glyph-name="C" unicode="C" horiz-adv-x="741" 
d="M705 275q-12 -134 -94 -213t-225 -79q-155 0 -249.5 102.5t-94.5 271.5q0 160 95.5 266t254.5 106q127 0 213 -72t95 -183h-153q-12 59 -53.5 91.5t-104.5 32.5q-65 0 -109.5 -36.5t-62.5 -89.5t-18 -116q0 -110 51 -175.5t137 -65.5q143 0 163 160h155z" />
    <glyph glyph-name="D" unicode="D" horiz-adv-x="741" 
d="M70 0v712h288q166 0 255.5 -92t89.5 -264t-89.5 -264t-255.5 -92h-288zM225 130h114q207 0 207 226q0 109 -51.5 167.5t-155.5 58.5h-114v-452z" />
    <glyph glyph-name="E" unicode="E" horiz-adv-x="648" 
d="M603 712v-128h-379v-155h348v-123h-348v-175h386v-131h-541v712h534z" />
    <glyph glyph-name="F" unicode="F" horiz-adv-x="593" 
d="M571 712v-131h-346v-165h301v-124h-301v-292h-156v712h502z" />
    <glyph glyph-name="G" unicode="G" horiz-adv-x="759" 
d="M703 385v-385h-99l-15 81q-80 -98 -214 -98q-149 0 -242 103t-93 267q0 165 98 269.5t252 104.5q122 0 206 -68.5t98 -180.5h-151q-11 56 -52 87t-103 31q-89 0 -140 -64.5t-51 -178.5q0 -116 51.5 -180.5t144.5 -64.5q73 0 120 44.5t50 116.5h-159v116h299z" />
    <glyph glyph-name="H" unicode="H" horiz-adv-x="741" 
d="M672 712v-712h-156v307h-291v-307h-156v712h156v-268h291v268h156z" />
    <glyph glyph-name="I" unicode="I" horiz-adv-x="295" 
d="M226 712v-712h-157v712h157z" />
    <glyph glyph-name="J" unicode="J" 
d="M498 712v-489q0 -240 -234 -240q-113 0 -175.5 59t-62.5 177v47h144v-22q0 -27 0.5 -40.5t5 -35t13.5 -32t26.5 -19t43.5 -8.5q28 0 45.5 9t25.5 27.5t10 36.5t2 46v484h156z" />
    <glyph glyph-name="K" unicode="K" horiz-adv-x="722" 
d="M702 712l-279 -281l305 -431h-196l-216 320l-91 -90v-230h-154v712h154v-296l280 296h197z" />
    <glyph glyph-name="L" unicode="L" horiz-adv-x="593" 
d="M573 134v-134h-504v712h156v-578h348z" />
    <glyph glyph-name="M" unicode="M" horiz-adv-x="907" 
d="M69 0v712h223l166 -489l162 489h218v-712h-147v506l-175 -506h-121l-177 501v-501h-149z" />
    <glyph glyph-name="N" unicode="N" horiz-adv-x="741" 
d="M69 0v712h159l293 -477v477h150v-712h-156l-295 478v-478h-151z" />
    <glyph glyph-name="O" unicode="O" horiz-adv-x="778" 
d="M391 729q156 0 252.5 -103.5t96.5 -270.5t-96.5 -269.5t-253.5 -102.5q-158 0 -255 102.5t-97 269.5q0 169 96.5 271.5t256.5 102.5zM389 601q-88 0 -140.5 -66t-52.5 -177q0 -115 52 -180t143 -66q89 0 140 66t51 180q0 112 -52 177.5t-141 65.5z" />
    <glyph glyph-name="P" unicode="P" horiz-adv-x="667" 
d="M70 712h307q120 0 190.5 -57.5t70.5 -171.5q0 -112 -70 -169.5t-183 -57.5h-160v-256h-155v712zM225 584v-205h139q122 0 122 102q0 103 -121 103h-140z" />
    <glyph glyph-name="Q" unicode="Q" horiz-adv-x="778" 
d="M734 8l-73 -79l-105 95q-64 -41 -172 -41q-155 0 -250.5 102t-95.5 269q0 165 98.5 269.5t254.5 104.5q153 0 250 -103.5t97 -266.5q0 -83 -25 -153t-71 -113zM534 192q48 57 48 165q0 112 -52 177t-142 65q-88 0 -140.5 -66t-52.5 -178q0 -113 52 -180t140 -67
q36 0 68 14l-71 62l73 78z" />
    <glyph glyph-name="R" unicode="R" horiz-adv-x="722" 
d="M75 712h354q106 0 173 -50t67 -152q0 -62 -30 -108.5t-83 -66.5q92 -19 105 -166q0 -5 2 -31t4 -41.5t5 -37.5t9 -37t14 -22h-162q-8 16 -12 40.5t-7 63t-3 42.5q-8 75 -37.5 104t-104.5 29h-139v-279h-155v712zM230 589v-197h148q65 0 101.5 20.5t36.5 80.5
q0 56 -35.5 76t-95.5 20h-155z" />
    <glyph glyph-name="S" unicode="S" horiz-adv-x="649" 
d="M596 500h-148q-9 106 -135 106q-54 0 -84.5 -21.5t-30.5 -59.5q0 -13 4 -23t15 -18.5t22 -14t32.5 -12t39 -11.5t49.5 -13t56 -15q105 -30 156.5 -75t51.5 -129q0 -61 -25 -106.5t-67.5 -72t-93 -39t-107.5 -12.5q-145 0 -226.5 66.5t-82.5 187.5h155q4 -134 161 -134
q61 0 96.5 25.5t35.5 69.5q0 37 -32.5 54t-136.5 47q-6 1 -9 2t-8 2.5t-9 2.5q-36 10 -50 14.5t-44.5 15.5t-44.5 20t-34.5 25t-29.5 33.5t-16.5 43t-7.5 55.5q0 97 75 155t199 58q120 0 196 -56.5t78 -170.5z" />
    <glyph glyph-name="T" unicode="T" horiz-adv-x="611" 
d="M598 712v-133h-214v-579h-157v579h-214v133h585z" />
    <glyph glyph-name="U" unicode="U" horiz-adv-x="741" 
d="M675 712v-428q0 -153 -73.5 -225.5t-229.5 -72.5q-158 0 -232.5 73.5t-74.5 226.5v426h156v-426q0 -87 33 -129t120 -42q84 0 114.5 42t30.5 129v426h156z" />
    <glyph glyph-name="V" unicode="V" horiz-adv-x="630" 
d="M-8 712h163l160 -500l162 500h162l-237 -712h-177z" />
    <glyph glyph-name="W" unicode="W" horiz-adv-x="944" 
d="M3 712h157l114 -484l125 484h147l123 -490l118 490h154l-192 -712h-156l-122 486l-120 -486h-159z" />
    <glyph glyph-name="X" unicode="X" horiz-adv-x="667" 
d="M651 712l-229 -340l250 -372h-187l-156 247l-158 -247h-178l251 372l-232 340h182l142 -229l143 229h172z" />
    <glyph glyph-name="Y" unicode="Y" horiz-adv-x="667" 
d="M676 712l-265 -438v-274h-154v277l-266 435h178l166 -285l168 285h173z" />
    <glyph glyph-name="Z" unicode="Z" horiz-adv-x="648" 
d="M610 712v-119l-386 -459h399v-134h-603v127l383 452h-356v133h563z" />
    <glyph glyph-name="bracketleft" unicode="[" horiz-adv-x="333" 
d="M329 717v-109h-128v-671h128v-109h-259v889h259z" />
    <glyph glyph-name="backslash" unicode="\" horiz-adv-x="371" 
d="M113 729l273 -746h-123l-272 746h122z" />
    <glyph glyph-name="bracketright" unicode="]" horiz-adv-x="333" 
d="M4 717h259v-889h-259v109h128v671h-128v109z" />
    <glyph glyph-name="asciicircum" unicode="^" horiz-adv-x="600" 
d="M67 268l176 426h114l176 -426h-119l-117 288l-111 -288h-119z" />
    <glyph glyph-name="underscore" unicode="_" horiz-adv-x="500" 
d="M0 -125v50h500v-50h-500z" />
    <glyph glyph-name="grave" unicode="`" horiz-adv-x="259" 
d="M111 722l94 -143h-101l-152 143h159z" />
    <glyph glyph-name="a" unicode="a" horiz-adv-x="574" 
d="M534 0h-144q-7 20 -10 50q-65 -65 -167 -65q-86 0 -135 41.5t-49 114.5q0 33 8.5 58t28 42t37 28t48.5 18t50 10.5t53 7.5q75 10 100.5 21t25.5 41q0 69 -93 69q-49 0 -72 -17.5t-30 -61.5h-133q12 174 239 174q225 0 225 -168v-223q0 -98 18 -140zM379 251
q-25 -15 -100 -27q-63 -10 -82 -25q-22 -19 -22 -52q0 -32 20.5 -50.5t57.5 -18.5q57 0 91.5 30.5t34.5 84.5v58z" />
    <glyph glyph-name="b" unicode="b" horiz-adv-x="611" 
d="M194 712v-259q60 75 163 75t162 -75t59 -190q0 -124 -63.5 -200.5t-165.5 -76.5q-107 0 -162 79l1 -65h-135v712h141zM313 419q-57 0 -90.5 -42.5t-33.5 -115.5q0 -75 33 -118t91 -43q55 0 88.5 44t33.5 118q0 71 -33.5 114t-88.5 43z" />
    <glyph glyph-name="c" unicode="c" horiz-adv-x="574" 
d="M546 199q-13 -100 -78.5 -156t-168.5 -56q-119 0 -191 73t-72 194q0 125 72.5 201t192.5 76q103 0 168 -52.5t74 -142.5h-139q-16 89 -102 89q-58 0 -90.5 -44.5t-32.5 -123.5q0 -77 31.5 -119.5t88.5 -42.5q93 0 110 104h137z" />
    <glyph glyph-name="d" unicode="d" horiz-adv-x="611" 
d="M557 0h-134v66q-51 -80 -156 -80q-107 0 -170.5 74.5t-63.5 199.5q0 122 61.5 196t164.5 74q48 0 90.5 -20t66.5 -58v260h141v-712zM421 259q0 75 -32.5 117t-90.5 42t-90 -42t-32 -116q0 -75 32.5 -117.5t89.5 -42.5q59 0 91 41.5t32 117.5z" />
    <glyph glyph-name="e" unicode="e" horiz-adv-x="574" 
d="M539 160q-24 -83 -88.5 -129t-153.5 -46q-119 0 -191.5 74t-72.5 196q0 120 73 198t186 78q117 0 186 -79.5t69 -215.5v-14h-370q1 -67 32.5 -102t88.5 -35q75 0 105 75h136zM403 312q-5 51 -33 83.5t-78 32.5q-47 0 -78 -31t-37 -85h226z" />
    <glyph glyph-name="f" unicode="f" horiz-adv-x="333" 
d="M335 712v-104q-44 2 -47 2q-38 0 -50.5 -10.5t-12.5 -42.5v-41h101v-96h-100v-420h-142v420h-84v96h84v27q0 91 41 131.5t136 40.5q11 0 23.5 -0.5t27.5 -1.5t23 -1z" />
    <glyph glyph-name="g" unicode="g" horiz-adv-x="611" 
d="M549 516v-462q0 -127 -63 -186.5t-191 -59.5q-221 0 -242 161h141q8 -35 33 -50.5t71 -15.5q67 0 90 32.5t24 101.5l1 58q-58 -80 -158 -80q-101 0 -160.5 69t-59.5 185q0 118 62 189.5t164 71.5q54 0 89.5 -19.5t64.5 -63.5v69h134zM294 420q-56 0 -87.5 -39.5
t-31.5 -110.5q0 -68 32.5 -108.5t87.5 -40.5t87 41t32 111q0 69 -32 108t-88 39z" />
    <glyph glyph-name="h" unicode="h" horiz-adv-x="593" 
d="M195 712v-265q61 82 163 82q181 0 181 -191v-338h-142v304q0 53 -19 81t-72 28q-64 0 -87.5 -41t-23.5 -109v-263h-140v712h140z" />
    <glyph glyph-name="i" unicode="i" horiz-adv-x="258" 
d="M200 712v-120h-142v120h142zM200 516v-516h-142v516h142z" />
    <glyph glyph-name="j" unicode="j" horiz-adv-x="278" 
d="M210 516v-517q0 -102 -36.5 -144t-135.5 -42q-28 0 -57 2v114q12 -1 26 -1q22 0 34.5 4t18.5 15t7 22t1 34v513h142zM210 712v-122h-142v122h142z" />
    <glyph glyph-name="k" unicode="k" horiz-adv-x="574" 
d="M555 516l-194 -191l217 -325h-172l-142 229l-58 -54v-175h-139v712h139v-381l182 185h167z" />
    <glyph glyph-name="l" unicode="l" horiz-adv-x="258" 
d="M200 712v-712h-142v712h142z" />
    <glyph glyph-name="m" unicode="m" horiz-adv-x="906" 
d="M849 0h-144v308q0 51 -16 78.5t-66 27.5q-99 0 -99 -124v-290h-142v314q0 48 -16 74.5t-62 26.5q-103 0 -103 -135v-280h-142v516h135v-71q61 85 164 85q107 0 146 -85q62 85 169 85q85 0 130.5 -49.5t45.5 -133.5v-347z" />
    <glyph glyph-name="n" unicode="n" horiz-adv-x="593" 
d="M540 0h-144v301q0 55 -18 83.5t-70 28.5q-112 0 -112 -136v-277h-141v516h135v-72q64 86 171 86q83 0 131 -48t48 -137v-345z" />
    <glyph glyph-name="o" unicode="o" horiz-adv-x="611" 
d="M308 531q119 0 191.5 -75t72.5 -198q0 -124 -72.5 -199t-193.5 -75t-194 75t-73 199q0 123 74 198t195 75zM304 423q-57 0 -90 -44t-33 -121q0 -79 33 -123t92 -44t91.5 44.5t32.5 123.5q0 77 -33.5 120.5t-92.5 43.5z" />
    <glyph glyph-name="p" unicode="p" horiz-adv-x="611" 
d="M188 516v-64q56 78 160 78t167 -75t63 -200q0 -121 -61.5 -194.5t-162.5 -73.5q-104 0 -159 77v-247h-141v699h134zM313 416q-58 0 -90.5 -42t-32.5 -117t33 -117t91 -42q57 0 89.5 42t32.5 115q0 75 -33 118t-90 43z" />
    <glyph glyph-name="q" unicode="q" horiz-adv-x="611" 
d="M558 516v-699h-141v248q-57 -78 -159 -78q-103 0 -164 73t-61 195q0 125 63 200t168 75q107 0 159 -78v64h135zM295 417q-55 0 -87 -43.5t-32 -119.5q0 -74 32 -115t90 -41t90.5 42.5t32.5 118.5q0 75 -33 116.5t-93 41.5z" />
    <glyph glyph-name="r" unicode="r" horiz-adv-x="389" 
d="M389 525v-131q-30 6 -55 6q-70 0 -103 -44.5t-33 -119.5v-236h-142v516h135v-95q51 107 167 107q10 0 31 -3z" />
    <glyph glyph-name="s" unicode="s" horiz-adv-x="537" 
d="M490 366h-132q-6 39 -29.5 55t-68.5 16q-38 0 -59 -13.5t-21 -37.5q0 -28 24 -39t86 -24q11 -2 16 -3q36 -7 57.5 -12.5t52.5 -18t48 -28t30 -41.5t13 -60q0 -81 -63 -128t-173 -47q-105 0 -173 45t-69 138h135q7 -86 110 -86q43 0 68.5 17.5t25.5 46.5t-23 41t-85 26
q-5 1 -8 2q-7 2 -31 7t-33.5 7.5t-31 8.5t-31.5 11.5t-26.5 14t-24.5 18.5t-17.5 23.5t-13 30.5t-3.5 37q0 76 59 117t167 41q97 0 159 -40t65 -125z" />
    <glyph glyph-name="t" unicode="t" horiz-adv-x="352" 
d="M338 516v-96h-105v-243q0 -23 1 -33.5t7 -21.5t18.5 -14.5t35.5 -3.5q26 0 43 2v-108q-52 -4 -86 -4q-93 0 -126.5 32.5t-33.5 125.5v268h-86v96h86v156h141v-156h105z" />
    <glyph glyph-name="u" unicode="u" horiz-adv-x="593" 
d="M538 516v-516h-135v73q-60 -88 -168 -88q-85 0 -132.5 46.5t-47.5 137.5v347h143v-295q0 -29 2.5 -46.5t10.5 -35.5t26.5 -26.5t47.5 -8.5q112 0 112 146v266h141z" />
    <glyph glyph-name="v" unicode="v" horiz-adv-x="520" 
d="M375 516h141l-175 -516h-159l-177 516h150l110 -352z" />
    <glyph glyph-name="w" unicode="w" horiz-adv-x="814" 
d="M5 516h151l96 -351l87 351h137l90 -349l96 349h145l-163 -516h-146l-92 347l-89 -347h-147z" />
    <glyph glyph-name="x" unicode="x" horiz-adv-x="537" 
d="M517 516l-170 -241l191 -275h-162l-109 167l-108 -167h-161l188 272l-171 244h162l92 -138l91 138h157z" />
    <glyph glyph-name="y" unicode="y" horiz-adv-x="519" 
d="M523 516l-190 -514q-14 -39 -20.5 -54.5t-20 -43.5t-25 -39t-31 -25t-44 -19t-56.5 -5q-26 0 -95 1v117h69q35 0 53.5 18t18.5 51q0 8 -4 20l-187 493h153l118 -351l114 351h147z" />
    <glyph glyph-name="z" unicode="z" horiz-adv-x="519" 
d="M479 516v-103l-272 -301h290v-112h-475v108l273 299h-252v109h436z" />
    <glyph glyph-name="braceleft" unicode="{" horiz-adv-x="333" 
d="M330 -171q-129 6 -179.5 56.5t-50.5 174.5v36q0 79 -16.5 108t-84.5 37v64q59 7 80 35t21 91v54q0 125 50.5 175t179.5 58v-64q-59 -6 -79 -36.5t-20 -101.5v-57q0 -86 -33.5 -130.5t-115.5 -55.5q84 -8 116.5 -55.5t32.5 -130.5v-58q0 -69 19 -100t80 -37v-63z" />
    <glyph glyph-name="bar" unicode="|" horiz-adv-x="223" 
d="M51 -214v1000h121v-1000h-121z" />
    <glyph glyph-name="braceright" unicode="}" horiz-adv-x="333" 
d="M330 241q-68 -8 -84.5 -37t-16.5 -108v-36q0 -124 -50.5 -174.5t-179.5 -56.5v63q61 6 80 37t19 100v58q0 83 32.5 130.5t116.5 55.5q-82 11 -115.5 55.5t-33.5 130.5v57q0 71 -20 101.5t-79 36.5v64q129 -8 179.5 -58t50.5 -175v-54q0 -63 21 -91t80 -35v-64z" />
    <glyph glyph-name="asciitilde" unicode="~" horiz-adv-x="600" 
d="M422 171q-21 0 -52 7t-51.5 14t-59 21t-48.5 17q-32 10 -45 10q-26 0 -41.5 -21t-19.5 -49h-78q3 34 12.5 63.5t26 56.5t45 42.5t66.5 15.5q16 0 35.5 -3.5t32 -7.5t35.5 -12t32 -11q99 -33 125 -33q48 0 60 67h78q-20 -177 -153 -177z" />
    <glyph glyph-name="sterling" unicode="&#xa3;" 
d="M540 479h-140q-2 124 -109 124q-43 0 -71 -26t-28 -66q0 -23 14.5 -59t29.5 -60h133v-82h-106q11 -37 11 -55q0 -44 -21.5 -76t-63.5 -68q47 21 90 21q27 0 70 -10q46 -12 64 -12q55 0 92 42l60 -103q-62 -62 -161 -62q-44 0 -121 23q-58 16 -90 16q-50 0 -107 -40
l-61 91q3 2 16 13t16.5 14t14.5 13t14.5 14t12.5 14t12 16t8.5 16.5t7.5 19t4 19.5t2 23q0 33 -17 71h-98v82h64q-43 61 -43 126q0 91 69 147t181 56q118 0 183 -62.5t68 -179.5z" />
    <glyph glyph-name="currency" unicode="&#xa4;" 
d="M524 173l-61 -61l-67 66q-54 -36 -117 -36q-66 0 -119 36l-67 -66l-61 61l66 66q-36 57 -36 119q0 63 36 119l-66 66l61 61l66 -66q56 36 119 36q58 0 120 -36l65 66l61 -61l-66 -66q36 -50 36 -120q0 -62 -36 -118zM382 358q0 43 -30.5 73.5t-73.5 30.5t-73.5 -30.5
t-30.5 -73.5t30.5 -73.5t73.5 -30.5t73.5 30.5t30.5 73.5z" />
    <glyph glyph-name="brokenbar" unicode="&#xa6;" horiz-adv-x="223" 
d="M58 -89v250h107v-250h-107zM58 411v250h107v-250h-107z" />
    <glyph glyph-name="section" unicode="&#xa7;" 
d="M494 537h-126q-6 82 -83 82q-33 0 -53.5 -17t-20.5 -44q0 -8 1 -14t4.5 -12.5t6.5 -11t11.5 -10.5t14.5 -10t20 -11.5t24.5 -13t31 -16t36.5 -18.5q5 -3 30.5 -16t33.5 -17t30 -17t30.5 -21t23.5 -23t21 -28t11.5 -31t5.5 -38q0 -50 -28 -89t-76 -56q54 -49 54 -114
q0 -79 -60 -128.5t-156 -49.5q-103 0 -162 53t-60 146h127q7 -89 95 -89q36 0 57.5 18t21.5 48q0 33 -33.5 57t-136.5 75q-89 44 -119 69q-60 49 -60 122q0 53 28.5 90.5t78.5 53.5q-43 44 -43 101q0 74 59 121t152 47t150 -51.5t58 -136.5zM188 391q-54 -16 -54 -66
q0 -14 5 -25t17.5 -20t19 -13t23.5 -13l170 -88q24 2 39 19t15 42q0 27 -15.5 42.5t-45.5 30.5z" />
    <glyph glyph-name="copyright" unicode="&#xa9;" horiz-adv-x="800" 
d="M393 731q155 0 265 -109.5t110 -264.5t-109.5 -264.5t-264.5 -109.5t-265 109.5t-110 264.5t109.5 264.5t264.5 109.5zM393 666q-128 0 -218.5 -90.5t-90.5 -218.5t90.5 -218.5t218.5 -90.5t219 90.5t91 218.5t-91 218.5t-219 90.5zM582 296q-8 -71 -57.5 -115
t-122.5 -44q-90 0 -149 62.5t-59 157.5q0 98 56 160.5t144 62.5q77 0 129.5 -45.5t57.5 -116.5h-92q-6 37 -29.5 58t-59.5 21q-44 0 -69 -37t-25 -101q0 -65 26.5 -102t73.5 -37q37 0 56.5 19t27.5 57h92z" />
    <glyph glyph-name="guillemotleft" unicode="&#xab;" horiz-adv-x="444" 
d="M395 454v-120l-88 -69l88 -69v-121l-156 123v133zM200 454v-118l-90 -69l90 -71v-122l-158 126v131z" />
    <glyph glyph-name="logicalnot" unicode="&#xac;" horiz-adv-x="600" 
d="M40 308v112h520v-321h-113v209h-407z" />
    <glyph glyph-name="registered" unicode="&#xae;" horiz-adv-x="400" 
d="M199 729q77 0 132 -54.5t55 -131.5t-55 -132t-132 -55t-131.5 55t-54.5 132t54.5 131.5t131.5 54.5zM199 697q-64 0 -109 -45t-45 -109t45 -109t109 -45t109 45t45 109t-45 109t-109 45zM121 647h74q92 0 92 -61q0 -36 -38 -49q20 -8 27 -21.5t8 -47.5q0 -16 5 -28h-48
q-4 8 -5 29q-1 30 -9.5 39t-36.5 9h-20v-77h-49v207zM170 555h23q45 0 45 27t-45 27h-23v-54z" />
    <glyph glyph-name="degree" unicode="&#xb0;" horiz-adv-x="400" 
d="M363 541q0 -67 -47.5 -115t-115.5 -48t-115.5 48t-47.5 115t47.5 115t115.5 48t115.5 -48t47.5 -115zM272 541q0 30 -21 51.5t-51 21.5t-51 -21.5t-21 -51.5t21 -51t51 -21t51 21t21 51z" />
    <glyph glyph-name="plusminus" unicode="&#xb1;" horiz-adv-x="600" 
d="M241 118v152h-201v111h201v155h118v-155h201v-111h-201v-152h-118zM40 -17v111h520v-111h-520z" />
    <glyph glyph-name="mu" unicode="&#xb5;" horiz-adv-x="593" 
d="M57 -183v699h141v-206v-25.5v-28t0.5 -27.5t2.5 -28l5 -25t8 -24t12.5 -19.5t17.5 -16t23.5 -9.5t29.5 -4q100 0 100 206v207h141v-516h-127v72q-25 -41 -49 -60.5t-60 -19.5q-68 0 -111 57v-232h-134z" />
    <glyph glyph-name="paragraph" unicode="&#xb6;" horiz-adv-x="620" 
d="M583 631h-54v-814h-99v814h-108v-814h-99v430q-92 6 -145.5 66.5t-53.5 155.5q0 118 71.5 180.5t188.5 62.5h299v-81z" />
    <glyph glyph-name="periodcentered" unicode="&#xb7;" horiz-adv-x="278" 
d="M218 365v-156h-158v156h158z" />
    <glyph glyph-name="guillemotright" unicode="&#xbb;" horiz-adv-x="444" 
d="M244 456l158 -126v-132l-158 -123v118l91 70l-91 72v121zM49 455l156 -124v-132l-156 -122v117l89 70l-89 69v122z" />
    <glyph glyph-name="divide" unicode="&#xf7;" horiz-adv-x="600" 
d="M40 208v125h520v-125h-520zM238 8v134h124v-134h-124zM238 399v134h124v-134h-124z" />
    <glyph glyph-name="florin" unicode="&#x192;" 
d="M451 430l-17 -94h-99l-57 -309q-20 -112 -64 -155t-155 -43q-33 0 -65 2l18 106q15 -1 30 -1q43 0 60 14.5t27 67.5l60 318h-91l17 94h92l20 109q18 98 65 138.5t144 40.5q25 0 73 -3l-20 -106q-21 2 -38 2q-42 0 -56.5 -19t-23.5 -64l-18 -98h98z" />
    <glyph glyph-name="afii10023" unicode="&#x401;" horiz-adv-x="648" 
d="M603 712v-128h-379v-155h348v-123h-348v-175h386v-131h-541v712h534zM506 888v-116h-133v116h133zM297 888v-116h-133v116h133z" />
    <glyph glyph-name="afii10051" unicode="&#x402;" horiz-adv-x="778" 
d="M600 165q0 75 -32.5 116t-90.5 41t-90.5 -42t-32.5 -117v-163h-157v579h-184v133h575v-133h-234v-214q56 78 158 78q106 0 176 -77.5t70 -200.5q0 -132 -74 -220.5t-179 -88.5q-52 0 -88 12v122q16 -8 55 -8q59 0 93.5 47t34.5 136z" />
    <glyph glyph-name="afii10052" unicode="&#x403;" horiz-adv-x="574" 
d="M438 902l-149 -144h-98l89 144h158zM565 712v-133h-340v-579h-156v712h496z" />
    <glyph glyph-name="afii10053" unicode="&#x404;" horiz-adv-x="741" 
d="M463 309h-261q11 -90 60 -142t125 -52q131 0 159 136h156q-18 -124 -99 -196t-217 -72q-155 0 -249.5 102.5t-94.5 271.5q0 160 95.5 266t254.5 106q123 0 207.5 -67.5t98.5 -172.5h-155q-15 52 -55.5 80.5t-98.5 28.5q-76 0 -121 -46t-61 -120h256v-123z" />
    <glyph glyph-name="afii10054" unicode="&#x405;" horiz-adv-x="649" 
d="M596 500h-148q-9 106 -135 106q-54 0 -84.5 -21.5t-30.5 -59.5q0 -13 4 -23t15 -18.5t22 -14t32.5 -12t39 -11.5t49.5 -13t56 -15q105 -30 156.5 -75t51.5 -129q0 -61 -25 -106.5t-67.5 -72t-93 -39t-107.5 -12.5q-145 0 -226.5 66.5t-82.5 187.5h155q4 -134 161 -134
q61 0 96.5 25.5t35.5 69.5q0 37 -32.5 54t-136.5 47q-6 1 -9 2t-8 2.5t-9 2.5q-36 10 -50 14.5t-44.5 15.5t-44.5 20t-34.5 25t-29.5 33.5t-16.5 43t-7.5 55.5q0 97 75 155t199 58q120 0 196 -56.5t78 -170.5z" />
    <glyph glyph-name="afii10055" unicode="&#x406;" horiz-adv-x="295" 
d="M226 712v-712h-157v712h157z" />
    <glyph glyph-name="afii10056" unicode="&#x407;" horiz-adv-x="295" 
d="M226 712v-712h-157v712h157zM318 888v-116h-133v116h133zM109 888v-116h-133v116h133z" />
    <glyph glyph-name="afii10057" unicode="&#x408;" 
d="M498 712v-489q0 -240 -234 -240q-113 0 -175.5 59t-62.5 177v47h144v-22q0 -27 0.5 -40.5t5 -35t13.5 -32t26.5 -19t43.5 -8.5q28 0 45.5 9t25.5 27.5t10 36.5t2 46v484h156z" />
    <glyph glyph-name="afii10058" unicode="&#x409;" horiz-adv-x="1054" 
d="M480 579h-171l-10 -302q-10 -291 -198 -291q-52 0 -88 12v126q24 -12 55 -12q37 0 57 33.5t23 133.5l12 433h476v-268h141q115 0 184 -52.5t69 -162.5q0 -114 -70.5 -171.5t-190.5 -57.5h-289v579zM878 227q0 45 -31.5 62.5t-90.5 17.5h-120v-174h121q121 0 121 94z" />
    <glyph glyph-name="afii10059" unicode="&#x40a;" horiz-adv-x="1054" 
d="M480 307h-255v-307h-156v712h156v-268h255v268h156v-268h141q115 0 184 -52.5t69 -162.5q0 -114 -70.5 -171.5t-190.5 -57.5h-289v307zM878 227q0 45 -31.5 62.5t-90.5 17.5h-120v-174h121q121 0 121 94z" />
    <glyph glyph-name="afii10060" unicode="&#x40b;" horiz-adv-x="778" 
d="M738 0h-156v201q0 64 -25.5 90.5t-85.5 26.5q-25 0 -117 -16v-302h-157v579h-184v133h575v-133h-234v-151q97 20 143 20q123 0 182 -57.5t59 -191.5v-199z" />
    <glyph glyph-name="afii10061" unicode="&#x40c;" horiz-adv-x="722" 
d="M702 712l-279 -281l305 -431h-196l-216 320l-91 -90v-230h-154v712h154v-296l280 296h197zM498 902l-149 -144h-98l89 144h158z" />
    <glyph glyph-name="afii10062" unicode="&#x40e;" horiz-adv-x="667" 
d="M461 904h56q0 -144 -163 -144t-163 144h56q13 -66 107 -66t107 66zM102 3v132q38 -16 75 -16q34 0 53 17.5t19 43.5q0 9 -2 18t-6 20t-7 17.5t-9.5 19.5l-8.5 17l-209 440h173l161 -375l158 375h167l-240 -524q-51 -112 -102 -156.5t-135 -44.5q-47 0 -87 16z" />
    <glyph glyph-name="afii10145" unicode="&#x40f;" horiz-adv-x="741" 
d="M446 0v-183h-151v183h-226v712h156v-579h291v579h156v-712h-226z" />
    <glyph glyph-name="afii10017" unicode="&#x410;" horiz-adv-x="685" 
d="M423 713l271 -713h-164l-56 159h-265l-58 -159h-160l271 713h161zM436 273l-94 265l-95 -265h189z" />
    <glyph glyph-name="afii10018" unicode="&#x411;" horiz-adv-x="704" 
d="M226 456h186q113 0 183 -57.5t70 -169.5q0 -114 -70.5 -171.5t-190.5 -57.5h-333v712h528v-129h-373v-127zM513 231q0 102 -122 102h-165v-205h166q121 0 121 103z" />
    <glyph glyph-name="afii10019" unicode="&#x412;" horiz-adv-x="704" 
d="M68 712h337q100 0 163.5 -44.5t63.5 -134.5q0 -50 -26 -88.5t-71 -58.5q130 -37 130 -174q0 -101 -68 -156.5t-173 -55.5h-356v712zM220 591v-167h142q118 0 118 83q0 49 -32 66.5t-86 17.5h-142zM220 318v-194h157q61 0 96.5 20t35.5 77q0 58 -37.5 77.5t-102.5 19.5
h-149z" />
    <glyph glyph-name="afii10020" unicode="&#x413;" horiz-adv-x="574" 
d="M565 712v-133h-340v-579h-156v712h496z" />
    <glyph glyph-name="afii10021" unicode="&#x414;" horiz-adv-x="778" 
d="M762 -183h-151v183h-452v-183h-151v316h54q61 82 87.5 195.5t26.5 275.5v108h507v-579h79v-316zM527 133v452h-196v-12q0 -267 -95 -440h291z" />
    <glyph glyph-name="afii10022" unicode="&#x415;" horiz-adv-x="648" 
d="M603 712v-128h-379v-155h348v-123h-348v-175h386v-131h-541v712h534z" />
    <glyph glyph-name="afii10024" unicode="&#x416;" horiz-adv-x="1054" 
d="M375 310l-191 -310h-193l285 421l-259 291h188l247 -291v291h150v-291l247 291h188l-259 -291l285 -421h-194l-190 310l-77 -87v-223h-150v223z" />
    <glyph glyph-name="afii10025" unicode="&#x417;" horiz-adv-x="649" 
d="M610 219q0 -103 -80 -169t-200 -66q-145 0 -226.5 66.5t-82.5 187.5h155q2 -68 44 -101t110 -33q54 0 88.5 32.5t34.5 81.5q0 100 -134 100h-54v106q12 -1 42 -1q129 0 129 97q0 41 -29 63.5t-78 22.5q-58 0 -93 -27.5t-39 -78.5h-148q2 113 81 170t200 57
q110 0 181.5 -54.5t71.5 -142.5q0 -53 -30 -92.5t-78 -50.5q59 -9 97 -55t38 -113z" />
    <glyph glyph-name="afii10026" unicode="&#x418;" horiz-adv-x="741" 
d="M672 712v-712h-156v494h-3l-268 -494h-176v712h156v-493h3l268 493h176z" />
    <glyph glyph-name="afii10027" unicode="&#x419;" horiz-adv-x="741" 
d="M672 712v-712h-156v494h-3l-268 -494h-176v712h156v-493h3l268 493h176zM478 904h56q0 -144 -163 -144t-163 144h56q13 -66 107 -66t107 66z" />
    <glyph glyph-name="afii10028" unicode="&#x41a;" horiz-adv-x="722" 
d="M702 712l-279 -281l305 -431h-196l-216 320l-91 -90v-230h-154v712h154v-296l280 296h197z" />
    <glyph glyph-name="afii10029" unicode="&#x41b;" horiz-adv-x="722" 
d="M656 712v-712h-156v579h-191l-10 -302q-10 -291 -198 -291q-52 0 -88 12v126q24 -12 55 -12q37 0 57 33.5t23 133.5l12 433h496z" />
    <glyph glyph-name="afii10030" unicode="&#x41c;" horiz-adv-x="907" 
d="M69 0v712h223l166 -489l162 489h218v-712h-147v506l-175 -506h-121l-177 501v-501h-149z" />
    <glyph glyph-name="afii10031" unicode="&#x41d;" horiz-adv-x="741" 
d="M672 712v-712h-156v307h-291v-307h-156v712h156v-268h291v268h156z" />
    <glyph glyph-name="afii10032" unicode="&#x41e;" horiz-adv-x="778" 
d="M391 729q156 0 252.5 -103.5t96.5 -270.5t-96.5 -269.5t-253.5 -102.5q-158 0 -255 102.5t-97 269.5q0 169 96.5 271.5t256.5 102.5zM389 601q-88 0 -140.5 -66t-52.5 -177q0 -115 52 -180t143 -66q89 0 140 66t51 180q0 112 -52 177.5t-141 65.5z" />
    <glyph glyph-name="afii10033" unicode="&#x41f;" horiz-adv-x="741" 
d="M672 712v-712h-156v579h-291v-579h-156v712h603z" />
    <glyph glyph-name="afii10034" unicode="&#x420;" horiz-adv-x="667" 
d="M70 712h307q120 0 190.5 -57.5t70.5 -171.5q0 -112 -70 -169.5t-183 -57.5h-160v-256h-155v712zM225 584v-205h139q122 0 122 102q0 103 -121 103h-140z" />
    <glyph glyph-name="afii10035" unicode="&#x421;" horiz-adv-x="741" 
d="M705 275q-12 -134 -94 -213t-225 -79q-155 0 -249.5 102.5t-94.5 271.5q0 160 95.5 266t254.5 106q127 0 213 -72t95 -183h-153q-12 59 -53.5 91.5t-104.5 32.5q-65 0 -109.5 -36.5t-62.5 -89.5t-18 -116q0 -110 51 -175.5t137 -65.5q143 0 163 160h155z" />
    <glyph glyph-name="afii10036" unicode="&#x422;" horiz-adv-x="611" 
d="M598 712v-133h-214v-579h-157v579h-214v133h585z" />
    <glyph glyph-name="afii10037" unicode="&#x423;" horiz-adv-x="667" 
d="M102 3v132q38 -16 75 -16q34 0 53 17.5t19 43.5q0 9 -2 18t-6 20t-7 17.5t-9.5 19.5l-8.5 17l-209 440h173l161 -375l158 375h167l-240 -524q-51 -112 -102 -156.5t-135 -44.5q-47 0 -87 16z" />
    <glyph glyph-name="afii10038" unicode="&#x424;" horiz-adv-x="848" 
d="M810 364q0 -131 -84 -206t-225 -80v-78h-154v78q-141 5 -225 80t-84 206q0 127 83.5 200t225.5 78v70h154v-70q142 -5 225.5 -78t83.5 -200zM660 364q0 76 -41 119t-118 46v-334q74 3 116.5 49.5t42.5 119.5zM347 195v334q-77 -3 -117.5 -46t-40.5 -119q0 -73 42 -119.5
t116 -49.5z" />
    <glyph glyph-name="afii10039" unicode="&#x425;" horiz-adv-x="667" 
d="M651 712l-229 -340l250 -372h-187l-156 247l-158 -247h-178l251 372l-232 340h182l142 -229l143 229h172z" />
    <glyph glyph-name="afii10040" unicode="&#x426;" horiz-adv-x="757" 
d="M749 -183h-151v183h-531v712h156v-579h291v579h156v-579h79v-316z" />
    <glyph glyph-name="afii10041" unicode="&#x427;" horiz-adv-x="667" 
d="M294 274q-125 0 -190 58.5t-65 190.5v189h156v-191q0 -64 25.5 -90.5t85.5 -26.5q49 0 141 16v292h156v-712h-156v294q-97 -20 -153 -20z" />
    <glyph glyph-name="afii10042" unicode="&#x428;" horiz-adv-x="1075" 
d="M67 0v712h156v-579h237v579h156v-579h237v579h156v-712h-942z" />
    <glyph glyph-name="afii10043" unicode="&#x429;" horiz-adv-x="1092" 
d="M1088 -183h-151v183h-870v712h156v-579h237v579h156v-579h237v579h156v-579h79v-316z" />
    <glyph glyph-name="afii10044" unicode="&#x42a;" horiz-adv-x="806" 
d="M206 578h-193v134h348v-256h168q113 0 183 -57.5t70 -169.5q0 -114 -70.5 -171.5t-190.5 -57.5h-315v578zM630 231q0 102 -122 102h-147v-205h148q121 0 121 103z" />
    <glyph glyph-name="afii10045" unicode="&#x42b;" horiz-adv-x="907" 
d="M607 229q0 -114 -70.5 -171.5t-190.5 -57.5h-277v712h155v-256h130q113 0 183 -57.5t70 -169.5zM455 231q0 102 -122 102h-109v-205h110q121 0 121 103zM683 712h156v-712h-156v712z" />
    <glyph glyph-name="afii10046" unicode="&#x42c;" horiz-adv-x="667" 
d="M643 229q0 -114 -70.5 -171.5t-190.5 -57.5h-315v712h155v-256h168q113 0 183 -57.5t70 -169.5zM491 231q0 102 -122 102h-147v-205h148q121 0 121 103z" />
    <glyph glyph-name="afii10047" unicode="&#x42d;" horiz-adv-x="741" 
d="M698 357q0 -169 -94.5 -271.5t-249.5 -102.5q-136 0 -217 72t-99 196h156q28 -136 159 -136q76 0 125 52t60 142h-261v123h256q-16 74 -61 120t-121 46q-58 0 -98.5 -28.5t-55.5 -80.5h-155q14 105 98.5 172.5t207.5 67.5q159 0 254.5 -106t95.5 -266z" />
    <glyph glyph-name="afii10048" unicode="&#x42e;" horiz-adv-x="1018" 
d="M659 729q143 0 232 -103.5t89 -270.5q0 -166 -89 -269t-233 -103q-136 0 -223.5 90t-98.5 239h-111v-312h-156v712h156v-273h115q22 134 107 212t212 78zM657 601q-76 0 -120.5 -66t-44.5 -177q0 -115 44.5 -180t122.5 -66q76 0 119.5 66t43.5 180q0 113 -44.5 178
t-120.5 65z" />
    <glyph glyph-name="afii10049" unicode="&#x42f;" horiz-adv-x="722" 
d="M407 279l-208 -279h-196l221 288q-74 19 -118.5 71.5t-44.5 134.5q0 108 69.5 163t175.5 55h349v-712h-155v279h-93zM500 392v197h-155q-60 0 -95.5 -20t-35.5 -76q0 -60 36.5 -80.5t101.5 -20.5h148z" />
    <glyph glyph-name="afii10065" unicode="&#x430;" horiz-adv-x="574" 
d="M534 0h-144q-7 20 -10 50q-65 -65 -167 -65q-86 0 -135 41.5t-49 114.5q0 33 8.5 58t28 42t37 28t48.5 18t50 10.5t53 7.5q75 10 100.5 21t25.5 41q0 69 -93 69q-49 0 -72 -17.5t-30 -61.5h-133q12 174 239 174q225 0 225 -168v-223q0 -98 18 -140zM379 251
q-25 -15 -100 -27q-63 -10 -82 -25q-22 -19 -22 -52q0 -32 20.5 -50.5t57.5 -18.5q57 0 91.5 30.5t34.5 84.5v58z" />
    <glyph glyph-name="afii10066" unicode="&#x431;" horiz-adv-x="611" 
d="M570 252q0 -122 -72.5 -194.5t-196.5 -72.5q-67 0 -117 27.5t-78 74.5t-41.5 101t-13.5 114q0 54 3.5 95.5t15.5 93t33.5 88.5t61.5 69t94 46q21 6 60.5 10t63 10.5t29.5 19.5h135q-5 -38 -21 -65.5t-36 -43t-53 -26.5t-60 -15t-70 -8q-160 -15 -181 -206h3
q22 61 72.5 103.5t131.5 42.5q101 0 169 -73t68 -191zM428 253q0 75 -31.5 116.5t-87.5 41.5q-53 0 -84.5 -42t-31.5 -117q0 -77 31.5 -118.5t86.5 -41.5t86 42t31 119z" />
    <glyph glyph-name="afii10067" unicode="&#x432;" horiz-adv-x="574" 
d="M52 516h297q73 0 119 -32.5t46 -97.5q0 -74 -70 -106q94 -27 94 -126q0 -73 -49.5 -113.5t-125.5 -40.5h-311v516zM192 309h94q84 0 84 59q0 34 -22.5 46t-61.5 12h-94v-117zM192 92h105q44 0 69 14t25 54q0 41 -27 55t-73 14h-99v-137z" />
    <glyph glyph-name="afii10068" unicode="&#x433;" horiz-adv-x="453" 
d="M446 407h-249v-407h-141v516h390v-109z" />
    <glyph glyph-name="afii10069" unicode="&#x434;" horiz-adv-x="628" 
d="M613 -152h-133v152h-340v-152h-133v261h62q25 48 45 140t20 177v90h412v-407h67v-261zM405 109v302h-139v-13q0 -75 -18.5 -158.5t-39.5 -130.5h197z" />
    <glyph glyph-name="afii10070" unicode="&#x435;" horiz-adv-x="574" 
d="M539 160q-24 -83 -88.5 -129t-153.5 -46q-119 0 -191.5 74t-72.5 196q0 120 73 198t186 78q117 0 186 -79.5t69 -215.5v-14h-370q1 -67 32.5 -102t88.5 -35q75 0 105 75h136zM403 312q-5 51 -33 83.5t-78 32.5q-47 0 -78 -31t-37 -85h226z" />
    <glyph glyph-name="afii10072" unicode="&#x436;" horiz-adv-x="822" 
d="M289 217l-125 -217h-167l199 320l-176 196h162l162 -205v205h134v-205l162 205h162l-179 -199l202 -317h-167l-125 217l-55 -62v-155h-134v155z" />
    <glyph glyph-name="afii10073" unicode="&#x437;" horiz-adv-x="537" 
d="M505 153q0 -82 -65 -125t-176 -43q-105 0 -173 45t-69 138h135q8 -86 110 -86q46 0 69 19t23 50q0 72 -89 72h-55v89h37q48 0 73 15t25 52q0 25 -21 41.5t-60 16.5q-45 0 -68.5 -16t-29.5 -55h-132q3 84 69 124.5t164 40.5q216 0 216 -139q0 -42 -29 -75t-64 -39v-2
q46 -6 78 -34t32 -89z" />
    <glyph glyph-name="afii10074" unicode="&#x438;" horiz-adv-x="593" 
d="M537 0h-136v349l-184 -349h-161v516h136v-349l184 349h161v-516z" />
    <glyph glyph-name="afii10075" unicode="&#x439;" horiz-adv-x="593" 
d="M403 712h56q0 -144 -163 -144t-163 144h56q13 -66 107 -66t107 66zM537 0h-136v349l-184 -349h-161v516h136v-349l184 349h161v-516z" />
    <glyph glyph-name="afii10076" unicode="&#x43a;" horiz-adv-x="574" 
d="M581 0h-172l-149 222l-63 -64v-158h-139v516h139v-204l189 204h167l-200 -200z" />
    <glyph glyph-name="afii10077" unicode="&#x43b;" horiz-adv-x="593" 
d="M534 0h-141v407h-136l-6 -182q-1 -30 -2 -47.5t-5.5 -46.5t-10.5 -46.5t-18.5 -39t-29 -33t-42.5 -20t-58 -8.5q-52 0 -77 10v113q25 -5 40 -5q61 0 64 107l8 307h414v-516z" />
    <glyph glyph-name="afii10078" unicode="&#x43c;" horiz-adv-x="722" 
d="M666 0h-134v392h-3l-101 -392h-134l-101 392h-3v-392h-134v516h206l97 -375h4l97 375h206v-516z" />
    <glyph glyph-name="afii10079" unicode="&#x43d;" horiz-adv-x="593" 
d="M537 0h-141v217h-199v-217h-141v516h141v-187h199v187h141v-516z" />
    <glyph glyph-name="afii10080" unicode="&#x43e;" horiz-adv-x="611" 
d="M572 258q0 -124 -72.5 -199t-193.5 -75t-194 75t-73 199q0 123 74 198t195 75q119 0 191.5 -75t72.5 -198zM430 259q0 77 -33.5 120.5t-92.5 43.5q-57 0 -90 -44t-33 -121q0 -79 33 -123t92 -44t91.5 44.5t32.5 123.5z" />
    <glyph glyph-name="afii10081" unicode="&#x43f;" horiz-adv-x="593" 
d="M537 0h-141v407h-199v-407h-141v516h481v-516z" />
    <glyph glyph-name="afii10082" unicode="&#x440;" horiz-adv-x="611" 
d="M188 516v-64q56 78 160 78t167 -75t63 -200q0 -121 -61.5 -194.5t-162.5 -73.5q-104 0 -159 77v-247h-141v699h134zM313 416q-58 0 -90.5 -42t-32.5 -117t33 -117t91 -42q57 0 89.5 42t32.5 115q0 75 -33 118t-90 43z" />
    <glyph glyph-name="afii10083" unicode="&#x441;" horiz-adv-x="574" 
d="M546 199q-13 -100 -78.5 -156t-168.5 -56q-119 0 -191 73t-72 194q0 125 72.5 201t192.5 76q103 0 168 -52.5t74 -142.5h-139q-16 89 -102 89q-58 0 -90.5 -44.5t-32.5 -123.5q0 -77 31.5 -119.5t88.5 -42.5q93 0 110 104h137z" />
    <glyph glyph-name="afii10084" unicode="&#x442;" horiz-adv-x="500" 
d="M491 407h-170v-407h-141v407h-170v109h481v-109z" />
    <glyph glyph-name="afii10085" unicode="&#x443;" horiz-adv-x="519" 
d="M523 516l-190 -514q-14 -39 -20.5 -54.5t-20 -43.5t-25 -39t-31 -25t-44 -19t-56.5 -5q-26 0 -95 1v117h69q35 0 53.5 18t18.5 51q0 8 -4 20l-187 493h153l118 -351l114 351h147z" />
    <glyph glyph-name="afii10086" unicode="&#x444;" horiz-adv-x="846" 
d="M810 266q0 -121 -50 -200.5t-157 -79.5q-31 0 -61 14t-46 34h-3v-217h-140v217h-3q-16 -20 -46 -34t-61 -14q-107 0 -157 79.5t-50 200.5q0 122 54 193.5t146 71.5q42 0 72 -15t42 -38h3v234h140v-234h3q12 23 42 38t72 15q92 0 146 -71.5t54 -193.5zM670 263
q0 159 -96 159q-26 0 -49 -13.5t-32 -41.5v-222q4 -20 25.5 -35t51.5 -15q100 0 100 168zM353 145v222q-9 28 -32 41.5t-49 13.5q-96 0 -96 -159q0 -168 100 -168q30 0 51.5 15t25.5 35z" />
    <glyph glyph-name="afii10087" unicode="&#x445;" horiz-adv-x="537" 
d="M517 516l-170 -241l191 -275h-162l-109 167l-108 -167h-161l188 272l-171 244h162l92 -138l91 138h157z" />
    <glyph glyph-name="afii10088" unicode="&#x446;" horiz-adv-x="603" 
d="M591 -152h-133v152h-405v516h141v-407h191v407h141v-407h65v-261z" />
    <glyph glyph-name="afii10089" unicode="&#x447;" horiz-adv-x="574" 
d="M378 302v214h141v-516h-141v203q-92 -23 -165 -23q-84 0 -128.5 47.5t-44.5 131.5v157h141v-128q0 -57 16.5 -79t62.5 -22q63 0 118 15z" />
    <glyph glyph-name="afii10090" unicode="&#x448;" horiz-adv-x="843" 
d="M787 0h-731v516h141v-407h154v407h141v-407h154v407h141v-516z" />
    <glyph glyph-name="afii10091" unicode="&#x449;" horiz-adv-x="855" 
d="M53 0v516h141v-407h151v407h141v-407h151v407h141v-407h65v-261h-133v152h-657z" />
    <glyph glyph-name="afii10092" unicode="&#x44a;" horiz-adv-x="648" 
d="M162 407h-154v109h294v-177h137q82 0 135.5 -44t53.5 -125q0 -83 -53.5 -126.5t-141.5 -43.5h-271v407zM302 243v-145h97q86 0 86 72q0 36 -24 54.5t-63 18.5h-96z" />
    <glyph glyph-name="afii10093" unicode="&#x44b;" horiz-adv-x="741" 
d="M553 516h141v-516h-141v516zM488 170q0 -83 -53.5 -126.5t-141.5 -43.5h-246v516h140v-177h112q82 0 135.5 -44t53.5 -125zM187 243v-145h72q86 0 86 72q0 36 -24 54.5t-63 18.5h-71z" />
    <glyph glyph-name="afii10094" unicode="&#x44c;" horiz-adv-x="537" 
d="M517 170q0 -83 -53.5 -126.5t-141.5 -43.5h-271v516h140v-177h137q82 0 135.5 -44t53.5 -125zM191 243v-145h97q86 0 86 72q0 36 -24 54.5t-63 18.5h-96z" />
    <glyph glyph-name="afii10095" unicode="&#x44d;" horiz-adv-x="574" 
d="M538 254q0 -121 -72 -194t-191 -73q-97 0 -161 50t-82 141h138q23 -83 105 -83q50 0 80.5 33t37.5 94h-166v90h163q-10 54 -40.5 83.5t-77.5 29.5q-80 0 -99 -77h-141q13 85 77 134t164 49q120 0 192.5 -76t72.5 -201z" />
    <glyph glyph-name="afii10096" unicode="&#x44e;" horiz-adv-x="836" 
d="M296 220h-99v-220h-141v516h141v-196h102q16 98 81.5 154.5t167.5 56.5q115 0 182 -74.5t67 -198.5q0 -125 -67.5 -199.5t-183.5 -74.5q-108 0 -174 63.5t-76 172.5zM655 259q0 78 -29 121t-82 43q-51 0 -79.5 -43.5t-28.5 -121.5q0 -80 28.5 -123.5t81.5 -43.5
q52 0 80.5 44t28.5 124z" />
    <glyph glyph-name="afii10097" unicode="&#x44f;" horiz-adv-x="574" 
d="M517 0h-141v191h-60l-148 -191h-174l171 203q-57 9 -94 51.5t-37 104.5q0 68 48 112.5t123 44.5h312v-516zM376 293v121h-113q-47 0 -66 -14.5t-19 -45.5q0 -32 18.5 -46.5t66.5 -14.5h113z" />
    <glyph glyph-name="afii10071" unicode="&#x451;" horiz-adv-x="574" 
d="M459 712v-116h-133v116h133zM249 712v-116h-133v116h133zM539 160q-24 -83 -88.5 -129t-153.5 -46q-119 0 -191.5 74t-72.5 196q0 120 73 198t186 78q117 0 186 -79.5t69 -215.5v-14h-370q1 -67 32.5 -102t88.5 -35q75 0 105 75h136zM403 312q-5 51 -33 83.5t-78 32.5
q-47 0 -78 -31t-37 -85h226z" />
    <glyph glyph-name="afii10099" unicode="&#x452;" horiz-adv-x="574" 
d="M539 86q0 -263 -292 -274v114q78 9 114 44.5t36 124.5v69q0 53 -19 81t-72 28q-64 0 -87.5 -41t-23.5 -109v-123h-140v435h-54v96h54v181h140v-181h248v-96h-248v-128q61 82 163 82q181 0 181 -191v-112z" />
    <glyph glyph-name="afii10100" unicode="&#x453;" horiz-adv-x="453" 
d="M446 407h-249v-407h-141v516h390v-109zM392 724l-149 -143h-99l90 143h158z" />
    <glyph glyph-name="afii10101" unicode="&#x454;" horiz-adv-x="574" 
d="M542 178q-18 -91 -82 -141t-161 -50q-119 0 -191 73t-72 194q0 125 72.5 201t192.5 76q100 0 164 -49t77 -134h-141q-19 77 -99 77q-47 0 -77.5 -29.5t-40.5 -83.5h163v-90h-166q7 -61 37.5 -94t80.5 -33q82 0 105 83h138z" />
    <glyph glyph-name="afii10102" unicode="&#x455;" horiz-adv-x="537" 
d="M490 366h-132q-6 39 -29.5 55t-68.5 16q-38 0 -59 -13.5t-21 -37.5q0 -28 24 -39t86 -24q11 -2 16 -3q36 -7 57.5 -12.5t52.5 -18t48 -28t30 -41.5t13 -60q0 -81 -63 -128t-173 -47q-105 0 -173 45t-69 138h135q7 -86 110 -86q43 0 68.5 17.5t25.5 46.5t-23 41t-85 26
q-5 1 -8 2q-7 2 -31 7t-33.5 7.5t-31 8.5t-31.5 11.5t-26.5 14t-24.5 18.5t-17.5 23.5t-13 30.5t-3.5 37q0 76 59 117t167 41q97 0 159 -40t65 -125z" />
    <glyph glyph-name="afii10103" unicode="&#x456;" horiz-adv-x="258" 
d="M200 712v-120h-142v120h142zM200 516v-516h-142v516h142z" />
    <glyph glyph-name="afii10104" unicode="&#x457;" horiz-adv-x="258" 
d="M200 516v-516h-142v516h142zM299 712v-116h-133v116h133zM90 712v-116h-133v116h133z" />
    <glyph glyph-name="afii10105" unicode="&#x458;" horiz-adv-x="278" 
d="M210 516v-517q0 -102 -36.5 -144t-135.5 -42q-28 0 -57 2v114q12 -1 26 -1q22 0 34.5 4t18.5 15t7 22t1 34v513h142zM210 712v-122h-142v122h142z" />
    <glyph glyph-name="afii10106" unicode="&#x459;" horiz-adv-x="822" 
d="M803 165q0 -82 -53.5 -123.5t-141.5 -41.5h-237v407h-117l-6 -182q-1 -30 -2 -47.5t-5.5 -46.5t-10.5 -46.5t-18.5 -39t-29 -33t-42.5 -20t-58 -8.5q-52 0 -77 10v113q25 -5 40 -5q61 0 64 107l8 307h395v-187h102q82 0 135.5 -42t53.5 -122zM660 165q0 64 -87 64h-61
v-128h61q43 0 65 14t22 50z" />
    <glyph glyph-name="afii10107" unicode="&#x45a;" horiz-adv-x="822" 
d="M366 229h-169v-229h-141v516h141v-187h169v187h141v-187h107q82 0 135.5 -42t53.5 -122q0 -82 -53.5 -123.5t-141.5 -41.5h-242v229zM507 229v-128h66q43 0 65 14t22 50q0 64 -87 64h-66z" />
    <glyph glyph-name="afii10108" unicode="&#x45b;" horiz-adv-x="574" 
d="M539 0h-142v164q0 53 -19 81t-72 28q-64 0 -87.5 -41t-23.5 -109v-123h-140v435h-53v96h53v181h140v-181h249v-96h-249v-128q61 82 163 82q181 0 181 -191v-198z" />
    <glyph glyph-name="afii10109" unicode="&#x45c;" horiz-adv-x="574" 
d="M472 724l-149 -143h-99l90 143h158zM581 0h-172l-149 219l-63 -64v-155h-139v516h139v-204l189 204h167l-197 -199z" />
    <glyph glyph-name="afii10110" unicode="&#x45e;" horiz-adv-x="519" 
d="M374 712h56q0 -144 -163 -144t-163 144h56q13 -66 107 -66t107 66zM523 516l-190 -514q-14 -39 -20.5 -54.5t-20 -43.5t-25 -39t-31 -25t-44 -19t-56.5 -5q-26 0 -95 1v117h69q35 0 53.5 18t18.5 51q0 8 -4 20l-187 493h153l118 -351l114 351h147z" />
    <glyph glyph-name="afii10193" unicode="&#x45f;" horiz-adv-x="593" 
d="M537 0h-173v-152h-134v152h-174v516h141v-407h199v407h141v-516z" />
    <glyph glyph-name="afii10050" unicode="&#x490;" horiz-adv-x="574" 
d="M566 871v-292h-341v-579h-156v712h346v159h151z" />
    <glyph glyph-name="afii10098" unicode="&#x491;" horiz-adv-x="453" 
d="M446 658v-251h-249v-407h-141v516h256v142h134z" />
    <glyph glyph-name="endash" unicode="&#x2013;" horiz-adv-x="500" 
d="M500 335v-126h-500v126h500z" />
    <glyph glyph-name="emdash" unicode="&#x2014;" horiz-adv-x="1000" 
d="M1000 335v-126h-1000v126h1000z" />
    <glyph glyph-name="quoteleft" unicode="&#x2018;" horiz-adv-x="278" 
d="M218 390h-158v122q0 86 35.5 136t122.5 64v-70q-68 -19 -71 -96h71v-156z" />
    <glyph glyph-name="quoteright" unicode="&#x2019;" horiz-adv-x="278" 
d="M218 590q0 -86 -35.5 -136t-122.5 -64v70q68 19 71 96h-71v156h158v-122z" />
    <glyph glyph-name="quotesinglbase" unicode="&#x201a;" horiz-adv-x="278" 
d="M218 156v-122q0 -86 -35.5 -136t-122.5 -64v70q68 19 71 96h-71v156h158z" />
    <glyph glyph-name="quotedblleft" unicode="&#x201c;" horiz-adv-x="463" 
d="M408 395h-143v125q0 76 35.5 128t107.5 64v-66q-64 -19 -67 -98h67v-153zM196 395h-143v125q0 76 35.5 128t107.5 64v-66q-64 -19 -67 -98h67v-153z" />
    <glyph glyph-name="quotedblright" unicode="&#x201d;" horiz-adv-x="463" 
d="M410 712v-125q0 -76 -35.5 -128t-107.5 -64v66q64 19 67 98h-67v153h143zM198 712v-125q0 -76 -35.5 -128t-107.5 -64v66q64 19 67 98h-67v153h143z" />
    <glyph glyph-name="quotedblbase" unicode="&#x201e;" horiz-adv-x="463" 
d="M409 154v-125q0 -76 -35.5 -128t-107.5 -64v66q64 19 67 98h-67v153h143zM197 154v-125q0 -76 -35.5 -128t-107.5 -64v66q64 19 67 98h-67v153h143z" />
    <glyph glyph-name="dagger" unicode="&#x2020;" 
d="M532 517v-122h-186v-559h-138v559h-184v122h184v195h138v-195h186z" />
    <glyph glyph-name="daggerdbl" unicode="&#x2021;" 
d="M532 522v-118h-186v-260h186v-118h-186v-190h-137v190h-185v118h185v260h-185v118h185v190h137v-190h186z" />
    <glyph glyph-name="bullet" unicode="&#x2022;" horiz-adv-x="501" 
d="M251 534q73 0 125.5 -52t52.5 -126t-52.5 -126t-125.5 -52q-74 0 -126 52t-52 126t52 126t126 52z" />
    <glyph glyph-name="ellipsis" unicode="&#x2026;" horiz-adv-x="1000" 
d="M100 0v134h133v-134h-133zM433 0v134h133v-134h-133zM766 0v134h133v-134h-133z" />
    <glyph glyph-name="perthousand" unicode="&#x2030;" horiz-adv-x="1147" 
d="M656 720l-438 -748h-86l440 748h84zM587 329q68 0 105.5 -43.5t37.5 -122.5q0 -86 -37 -131t-108 -45t-108.5 43.5t-37.5 125.5q0 85 38 129t110 44zM933 330q69 0 106.5 -44t37.5 -124q0 -85 -37.5 -130t-107.5 -45q-71 0 -109 43.5t-38 125.5q0 84 38.5 129t109.5 45z
M216 705q145 0 145 -172q0 -81 -38.5 -126t-108.5 -45t-107 44t-37 126q0 83 38 128t108 45zM585 264q-57 0 -57 -106q0 -56 13.5 -80.5t44.5 -24.5q54 0 54 109q0 102 -55 102zM931 265q-57 0 -57 -108q0 -104 58 -104q55 0 55 108q0 104 -56 104zM214 640q-55 0 -55 -112
q0 -100 56 -100q55 0 55 108q0 104 -56 104z" />
    <glyph glyph-name="guilsinglleft" unicode="&#x2039;" horiz-adv-x="241" 
d="M193 453v-119l-89 -69l89 -70v-121l-156 125v132z" />
    <glyph glyph-name="guilsinglright" unicode="&#x203a;" horiz-adv-x="241" 
d="M47 455l157 -124v-134l-157 -121v117l89 71l-89 70v121z" />
    <glyph glyph-name="afii61352" unicode="&#x2116;" horiz-adv-x="1046" 
d="M844 452q73 0 117.5 -44t44.5 -117q0 -74 -44.5 -118t-118.5 -44t-119 44.5t-45 117.5t45.5 117t119.5 44zM69 0v694h159l243 -439v439h150v-694h-156l-245 440v-440h-151zM999 98v-98h-301v98h301zM778 291q0 -88 65 -88q30 0 47.5 22.5t17.5 65.5q0 42 -18 64.5
t-48 22.5q-29 0 -46.5 -22.5t-17.5 -64.5z" />
    <glyph glyph-name="trademark" unicode="&#x2122;" horiz-adv-x="1000" 
d="M216 356v288h-109v68h300v-68h-107v-288h-84zM454 356v356h120l87 -245l87 245h118v-356h-77v290l-101 -290h-56l-101 290v-290h-77z" />
    <glyph glyph-name="Delta" unicode="&#x2206;" horiz-adv-x="682" 
d="M390 694l284 -694h-665l272 694h109zM334 553l-168 -449h346z" />
    <glyph glyph-name="radical" unicode="&#x221a;" horiz-adv-x="600" 
d="M583 786l-212 -1000h-131l-154 319l-49 -23l-40 85l158 65l132 -281l171 835h125z" />
    <glyph glyph-name="infinity" unicode="&#x221e;" horiz-adv-x="806" 
d="M761 262q0 -79 -45.5 -128.5t-119.5 -49.5q-30 0 -57 8.5t-52.5 27t-41.5 33.5t-42 42l-34.5 -34.5t-31 -27.5t-39 -27t-38.5 -13.5t-49 -7.5q-74 0 -120.5 48.5t-46.5 126.5t45.5 127t118.5 49q58 0 102.5 -31t92.5 -87q34 38 55.5 59t59.5 40.5t78 19.5q73 0 119 -49
t46 -126zM667 259q0 35 -20 56.5t-52 21.5q-48 0 -126 -80q24 -23 39.5 -36t40.5 -25.5t48 -12.5q32 0 51 21t19 55zM337 258q-80 78 -129 78q-30 0 -50 -21.5t-20 -55.5t20 -54.5t53 -20.5q31 0 65 21.5t61 52.5z" />
    <glyph glyph-name="approxequal" unicode="&#x2248;" horiz-adv-x="600" 
d="M419 70q-21 0 -52 7t-51.5 14t-59 21t-48.5 17q-30 10 -45 10q-48 0 -62 -70h-75q6 73 41.5 124.5t106.5 51.5q16 0 35.5 -4t31.5 -7.5t35.5 -11.5t31.5 -11q99 -33 126 -33q49 0 61 67h75q-18 -175 -151 -175zM421 273q-21 0 -52 7t-51.5 14t-59 21t-48.5 17
q-30 10 -45 10q-48 0 -62 -70h-75q6 73 41.5 124.5t106.5 51.5q16 0 35.5 -4t31.5 -7.5t35.5 -11.5t31.5 -11q99 -33 126 -33q49 0 61 67h75q-18 -175 -151 -175z" />
    <glyph glyph-name="notequal" unicode="&#x2260;" horiz-adv-x="600" 
d="M502 530l-56 -110h114v-112h-171l-50 -97h221v-112h-278l-82 -163l-104 52l57 111h-113v112h170l49 97h-219v112h276l82 162z" />
    <glyph glyph-name="lessequal" unicode="&#x2264;" horiz-adv-x="600" 
d="M40 273v102l519 179v-117l-361 -113l361 -107v-117zM40 76h519v-111h-519v111z" />
    <glyph glyph-name="greaterequal" unicode="&#x2265;" horiz-adv-x="600" 
d="M559 273l-519 -173v117l360 107l-360 113v117l519 -179v-102zM559 76v-111h-519v111h519z" />
    <glyph glyph-name="hyphenminus" unicode="&#xe000;" horiz-adv-x="407" 
d="M354 336v-127h-301v127h301z" />
    <glyph glyph-name="nbspace" unicode="&#xe001;" horiz-adv-x="278" 
 />
    </font>
</defs>
</svg>
